<?xml version="1.0" encoding="UTF-8"?>
<svg version="1.1" xmlns="http://www.w3.org/2000/svg" width="500" height="500">
<path d="M0 0 C1.80130119 0.03025772 1.80130119 0.03025772 3.63899231 0.06112671 C4.92561264 0.09332306 6.21223297 0.12551941 7.5378418 0.15869141 C8.87589292 0.18488115 10.21396243 0.21014633 11.55204773 0.23452759 C15.06213782 0.30095747 18.57183794 0.37989686 22.081604 0.46148682 C25.6677766 0.54262378 29.25417691 0.61186858 32.84057617 0.68212891 C39.86883834 0.82156407 46.89675733 0.97422248 53.92456055 1.13525391 C53.95343038 5.1144055 53.97131461 9.09353044 53.98706055 13.07275391 C53.99543945 14.2090625 54.00381836 15.34537109 54.01245117 16.51611328 C54.01567383 17.59570312 54.01889648 18.67529297 54.0222168 19.78759766 C54.02745361 20.78782959 54.03269043 21.78806152 54.03808594 22.81860352 C53.92456055 25.13525391 53.92456055 25.13525391 52.92456055 26.13525391 C50.70768061 26.29399346 48.48600757 26.38659228 46.2644043 26.45166016 C45.5999379 26.47244125 44.9354715 26.49322235 44.25086975 26.51463318 C42.12137511 26.58019049 39.99175386 26.63904176 37.86206055 26.69775391 C36.42129207 26.7409333 34.98053656 26.78454739 33.53979492 26.82861328 C30.00151151 26.93669917 26.46313657 27.03572484 22.92456055 27.13525391 C22.59456055 32.41525391 22.26456055 37.69525391 21.92456055 43.13525391 C32.48456055 42.80525391 43.04456055 42.47525391 53.92456055 42.13525391 C55.58805373 38.80826753 55.16834112 35.07096006 55.2409668 31.40869141 C55.27213844 30.11446762 55.27213844 30.11446762 55.30393982 28.7940979 C55.36942088 26.03289898 55.42831353 23.27160353 55.48706055 20.51025391 C55.53024714 18.64045218 55.57386148 16.77066029 55.61791992 14.90087891 C55.72510079 10.31243662 55.8263723 5.72389708 55.92456055 1.13525391 C61.38699193 0.93716029 66.84732574 0.79217984 72.3125 0.69580078 C74.17029234 0.65562179 76.02783251 0.60106466 77.88476562 0.53173828 C80.55881864 0.43442193 83.22952606 0.3892783 85.9050293 0.35400391 C86.73230026 0.31271362 87.55957123 0.27142334 88.41191101 0.22888184 C90.8205009 0.22701699 92.6513853 0.33156074 94.92456055 1.13525391 C97.22467627 3.50931752 98.532208 6.16047893 99.92456055 9.13525391 C100.53895996 10.26930664 101.15335937 11.40335938 101.78637695 12.57177734 C102.36049316 13.70131836 102.93460937 14.83085937 103.52612305 15.99462891 C103.84451645 16.61747269 104.16290985 17.24031647 104.49095154 17.8820343 C105.16593792 19.20247788 105.83951529 20.52364257 106.51174927 21.8454895 C111.90652186 32.44863607 117.36546924 43.00250097 123.21020508 53.36669922 C127.03877529 60.19229497 130.40597157 67.09807595 133.92456055 74.13525391 C134.25456055 50.04525391 134.58456055 25.95525391 134.92456055 1.13525391 C144.16456055 1.13525391 153.40456055 1.13525391 162.92456055 1.13525391 C162.92456055 38.75525391 162.92456055 76.37525391 162.92456055 115.13525391 C149.39456055 115.13525391 135.86456055 115.13525391 121.92456055 115.13525391 C118.79987305 109.07150391 118.79987305 109.07150391 115.61206055 102.88525391 C110.72379338 93.42720886 105.73321853 84.04395434 100.55712891 74.73974609 C98.15848592 70.41743004 95.85156335 66.07519384 93.67456055 61.63525391 C90.68824918 55.66263118 87.28920729 49.90321976 83.92456055 44.13525391 C83.59456055 67.56525391 83.26456055 90.99525391 82.92456055 115.13525391 C73.68456055 115.46525391 64.44456055 115.79525391 54.92456055 116.13525391 C54.59456055 100.95525391 54.26456055 85.77525391 53.92456055 70.13525391 C50.45956055 71.12525391 50.45956055 71.12525391 46.92456055 72.13525391 C43.83496094 72.27050781 43.83496094 72.27050781 40.7722168 72.11181641 C39.11416016 72.03447266 39.11416016 72.03447266 37.42260742 71.95556641 C35.72201172 71.85888672 35.72201172 71.85888672 33.98706055 71.76025391 C32.82625977 71.70353516 31.66545898 71.64681641 30.46948242 71.58837891 C27.62064473 71.44769556 24.77251095 71.29288168 21.92456055 71.13525391 C21.92456055 77.07525391 21.92456055 83.01525391 21.92456055 89.13525391 C24.07858398 89.12365234 26.23260742 89.11205078 28.4519043 89.10009766 C30.53027194 89.09230654 32.60863797 89.08623009 34.68701172 89.08032227 C36.13526127 89.0752829 37.58350571 89.06845138 39.03173828 89.05981445 C41.10930643 89.04773144 43.18680752 89.04202179 45.2644043 89.03759766 C46.51600342 89.03236084 47.76760254 89.02712402 49.05712891 89.02172852 C51.92456055 89.13525391 51.92456055 89.13525391 52.92456055 90.13525391 C53.02402508 91.90384583 53.05536272 93.67636841 53.05737305 95.44775391 C53.05866211 96.52283203 53.05995117 97.59791016 53.0612793 98.70556641 C53.05741211 99.83736328 53.05354492 100.96916016 53.04956055 102.13525391 C53.05342773 103.26705078 53.05729492 104.39884766 53.0612793 105.56494141 C53.05999023 106.64001953 53.05870117 107.71509766 53.05737305 108.82275391 C53.05624512 109.81662109 53.05511719 110.81048828 53.05395508 111.83447266 C52.92456055 114.13525391 52.92456055 114.13525391 51.92456055 115.13525391 C30.97792785 116.63144196 9.92018873 115.56373611 -11.07543945 115.13525391 C-11.07543945 77.84525391 -11.07543945 40.55525391 -11.07543945 2.13525391 C-6.51545016 0.31125819 -4.66866316 -0.09828765 0 0 Z " fill="#F7F8F8" transform="translate(187.075439453125,137.86474609375)"/>
<path d="M0 0 C2.58926331 2.58926331 2.37398043 4.02705279 2.625 7.625 C2.69976562 8.62789062 2.77453125 9.63078125 2.8515625 10.6640625 C2.90054688 11.43492188 2.94953125 12.20578125 3 13 C3.598125 12.484375 4.19625 11.96875 4.8125 11.4375 C5.534375 10.963125 6.25625 10.48875 7 10 C7.99 10.33 8.98 10.66 10 11 C9.34 11.99 8.68 12.98 8 14 C7.34 14 6.68 14 6 14 C6 14.66 6 15.32 6 16 C6.67546875 15.72285156 7.3509375 15.44570313 8.046875 15.16015625 C8.93890625 14.79792969 9.8309375 14.43570313 10.75 14.0625 C11.63171875 13.70285156 12.5134375 13.34320313 13.421875 12.97265625 C25.36116303 8.46828849 42.40969562 9.2480742 54.2578125 13.7421875 C62.96214734 17.73477413 71.04440446 22.30090148 78 29 C78 29.66 78 30.32 78 31 C79.485 31.495 79.485 31.495 81 32 C93.76011751 46.70883838 99.03555276 63.74364984 98 83 C96.69738863 92.30261137 96.69738863 92.30261137 95 94 C93.34261557 94.09346915 91.68125356 94.11744977 90.02124023 94.11352539 C88.94531616 94.11340454 87.86939209 94.11328369 86.76086426 94.11315918 C85.62161499 94.10804321 84.48236572 94.10292725 83.30859375 94.09765625 C81.74727722 94.09614563 81.74727722 94.09614563 80.15441895 94.09460449 C76.24876816 94.08935401 72.34313303 94.07539289 68.4375 94.0625 C59.713125 94.041875 50.98875 94.02125 42 94 C42 118.75 42 143.5 42 169 C17 169 17 169 5 168 C1.55401866 164.55401866 1.32884154 162.97775554 0.3125 158.3125 C-3.03547356 144.72723282 -10.34556153 133.34139305 -17.5625 121.5 C-29.05183952 102.63090421 -37.7598248 84.91528294 -32.6875 62.25 C-31.01469252 55.76489802 -29.11770364 49.35311092 -27 43 C-28.65 43 -30.3 43 -32 43 C-32.33 42.34 -32.66 41.68 -33 41 C-31.02 41 -29.04 41 -27 41 C-27 40.34 -27 39.68 -27 39 C-26.34 39 -25.68 39 -25 39 C-24.505 36.03 -24.505 36.03 -24 33 C-23.34 33.33 -22.68 33.66 -22 34 C-21.67 34.99 -21.34 35.98 -21 37 C-20.39865234 36.27296875 -20.39865234 36.27296875 -19.78515625 35.53125 C-15.25157528 30.18553094 -10.3300192 25.54441546 -5 21 C-8.3 20.34 -11.6 19.68 -15 19 C-11.91111478 16.94074319 -11.29064073 16.7609626 -7.8125 16.875 C-6.554375 16.91625 -5.29625 16.9575 -4 17 C-4.66 16.21625 -5.32 15.4325 -6 14.625 C-8 12 -8 12 -8 10 C-5.50638429 11.20381448 -3.31856917 12.45428722 -1 14 C-1.020625 12.80375 -1.04125 11.6075 -1.0625 10.375 C-1.06882571 6.81995131 -0.69888875 3.49444376 0 0 Z " fill="#F6F8F8" transform="translate(132,42)"/>
<path d="M0 0 C1.80130119 0.03025772 1.80130119 0.03025772 3.63899231 0.06112671 C4.92561264 0.09332306 6.21223297 0.12551941 7.5378418 0.15869141 C8.87589292 0.18488115 10.21396243 0.21014633 11.55204773 0.23452759 C15.06213782 0.30095747 18.57183794 0.37989686 22.081604 0.46148682 C25.6677766 0.54262378 29.25417691 0.61186858 32.84057617 0.68212891 C39.86883834 0.82156407 46.89675733 0.97422248 53.92456055 1.13525391 C53.95343038 5.1144055 53.97131461 9.09353044 53.98706055 13.07275391 C53.99543945 14.2090625 54.00381836 15.34537109 54.01245117 16.51611328 C54.01567383 17.59570312 54.01889648 18.67529297 54.0222168 19.78759766 C54.02745361 20.78782959 54.03269043 21.78806152 54.03808594 22.81860352 C53.92456055 25.13525391 53.92456055 25.13525391 52.92456055 26.13525391 C50.70768061 26.29399346 48.48600757 26.38659228 46.2644043 26.45166016 C45.5999379 26.47244125 44.9354715 26.49322235 44.25086975 26.51463318 C42.12137511 26.58019049 39.99175386 26.63904176 37.86206055 26.69775391 C36.42129207 26.7409333 34.98053656 26.78454739 33.53979492 26.82861328 C30.00151151 26.93669917 26.46313657 27.03572484 22.92456055 27.13525391 C22.59456055 32.41525391 22.26456055 37.69525391 21.92456055 43.13525391 C26.44574768 43.03840773 30.96599785 42.93574031 35.48657227 42.81787109 C37.02490076 42.7795509 38.56331979 42.74470335 40.10180664 42.71337891 C42.31128331 42.66779331 44.52013503 42.60979051 46.72924805 42.54931641 C47.7637056 42.53198959 47.7637056 42.53198959 48.81906128 42.51431274 C52.81657595 42.48574369 52.81657595 42.48574369 55.92456055 40.13525391 C55.92456055 64.55525391 55.92456055 88.97525391 55.92456055 114.13525391 C64.17456055 114.13525391 72.42456055 114.13525391 80.92456055 114.13525391 C80.92456055 88.72525391 80.92456055 63.31525391 80.92456055 37.13525391 C81.58456055 37.13525391 82.24456055 37.13525391 82.92456055 37.13525391 C84.13799905 40.89999896 84.00647148 44.4504061 83.94628906 48.38232422 C83.93668152 49.10467255 83.92707397 49.82702087 83.91717529 50.57125854 C83.88426955 52.95206713 83.8439054 55.33268735 83.8034668 57.71337891 C83.77915743 59.36675356 83.75531428 61.02013512 83.73191833 62.67352295 C83.6691586 67.02026256 83.60006906 71.36687939 83.52966309 75.71350098 C83.45890631 80.15090352 83.39413332 84.58839295 83.32885742 89.02587891 C83.19994961 97.72910205 83.06380199 106.43218995 82.92456055 115.13525391 C73.68456055 115.46525391 64.44456055 115.79525391 54.92456055 116.13525391 C54.59456055 100.95525391 54.26456055 85.77525391 53.92456055 70.13525391 C50.45956055 71.12525391 50.45956055 71.12525391 46.92456055 72.13525391 C43.83496094 72.27050781 43.83496094 72.27050781 40.7722168 72.11181641 C39.11416016 72.03447266 39.11416016 72.03447266 37.42260742 71.95556641 C35.72201172 71.85888672 35.72201172 71.85888672 33.98706055 71.76025391 C32.82625977 71.70353516 31.66545898 71.64681641 30.46948242 71.58837891 C27.62064473 71.44769556 24.77251095 71.29288168 21.92456055 71.13525391 C21.92456055 77.07525391 21.92456055 83.01525391 21.92456055 89.13525391 C24.07858398 89.12365234 26.23260742 89.11205078 28.4519043 89.10009766 C30.53027194 89.09230654 32.60863797 89.08623009 34.68701172 89.08032227 C36.13526127 89.0752829 37.58350571 89.06845138 39.03173828 89.05981445 C41.10930643 89.04773144 43.18680752 89.04202179 45.2644043 89.03759766 C46.51600342 89.03236084 47.76760254 89.02712402 49.05712891 89.02172852 C51.92456055 89.13525391 51.92456055 89.13525391 52.92456055 90.13525391 C53.02402508 91.90384583 53.05536272 93.67636841 53.05737305 95.44775391 C53.05866211 96.52283203 53.05995117 97.59791016 53.0612793 98.70556641 C53.05741211 99.83736328 53.05354492 100.96916016 53.04956055 102.13525391 C53.05342773 103.26705078 53.05729492 104.39884766 53.0612793 105.56494141 C53.05999023 106.64001953 53.05870117 107.71509766 53.05737305 108.82275391 C53.05624512 109.81662109 53.05511719 110.81048828 53.05395508 111.83447266 C52.92456055 114.13525391 52.92456055 114.13525391 51.92456055 115.13525391 C30.97792785 116.63144196 9.92018873 115.56373611 -11.07543945 115.13525391 C-11.07543945 77.84525391 -11.07543945 40.55525391 -11.07543945 2.13525391 C-6.51545016 0.31125819 -4.66866316 -0.09828765 0 0 Z " fill="#74C6CF" transform="translate(187.075439453125,137.86474609375)"/>
<path d="M0 0 C7.34477127 6.04928097 12.65320933 13.76626957 14.36328125 23.27734375 C14.36328125 32.91210127 11.85120678 42.09798101 5.3515625 49.41796875 C-1.97160583 56.31938393 -9.3576906 59.81251796 -19.45703125 60.30078125 C-29.38147139 59.83747815 -36.60637749 56.32552205 -43.609375 49.390625 C-50.79233667 41.46030315 -52.88267622 32.7777064 -52.63671875 22.15234375 C-50.94150972 12.4947893 -45.07210634 5.49657473 -37.5546875 -0.51171875 C-25.94156455 -8.34542299 -11.38817487 -7.98015809 0 0 Z M-23.63671875 7.15234375 C-25.80094225 10.39867899 -26.01241731 11.39535818 -25.63671875 15.15234375 C-24.64671875 16.63734375 -24.64671875 16.63734375 -23.63671875 18.15234375 C-22.97671875 18.15234375 -22.31671875 18.15234375 -21.63671875 18.15234375 C-21.30671875 19.80234375 -20.97671875 21.45234375 -20.63671875 23.15234375 C-22.28671875 23.48234375 -23.93671875 23.81234375 -25.63671875 24.15234375 C-25.63671875 24.81234375 -25.63671875 25.47234375 -25.63671875 26.15234375 C-24.31671875 26.48234375 -22.99671875 26.81234375 -21.63671875 27.15234375 C-21.63671875 32.76234375 -21.63671875 38.37234375 -21.63671875 44.15234375 C-28.2485488 41.9484004 -28.90801223 41.37253287 -32.63671875 36.15234375 C-32.96671875 35.16234375 -33.29671875 34.17234375 -33.63671875 33.15234375 C-31.98671875 32.82234375 -30.33671875 32.49234375 -28.63671875 32.15234375 C-28.96671875 31.16234375 -29.29671875 30.17234375 -29.63671875 29.15234375 C-31.3028378 29.10962275 -32.9705476 29.11170543 -34.63671875 29.15234375 C-35.99117242 30.29521761 -35.99117242 30.29521761 -35.94921875 33.33984375 C-35.50030754 38.81656047 -33.13843405 41.46860236 -29.57421875 45.46484375 C-25.11253394 48.02793928 -20.73312585 48.3399876 -15.63671875 48.15234375 C-10.88546229 46.5685916 -7.84029276 43.97883493 -4.63671875 40.15234375 C-2.76668809 36.07227685 -2.3679882 33.46602763 -3.63671875 29.15234375 C-5.94671875 29.48234375 -8.25671875 29.81234375 -10.63671875 30.15234375 C-10.30671875 31.14234375 -9.97671875 32.13234375 -9.63671875 33.15234375 C-8.31671875 32.82234375 -6.99671875 32.49234375 -5.63671875 32.15234375 C-7.78126318 40.62590955 -7.78126318 40.62590955 -11.07421875 42.65234375 C-12.34265625 42.89984375 -12.34265625 42.89984375 -13.63671875 43.15234375 C-15.61671875 43.64734375 -15.61671875 43.64734375 -17.63671875 44.15234375 C-17.63671875 38.54234375 -17.63671875 32.93234375 -17.63671875 27.15234375 C-15.98671875 26.82234375 -14.33671875 26.49234375 -12.63671875 26.15234375 C-13.30540189 23.03902127 -13.30540189 23.03902127 -15.69921875 21.96484375 C-16.33859375 21.69671875 -16.97796875 21.42859375 -17.63671875 21.15234375 C-16.97671875 20.45109375 -16.31671875 19.74984375 -15.63671875 19.02734375 C-13.30420572 15.67435627 -13.0283272 14.15034539 -13.63671875 10.15234375 C-14.5726919 8.13283313 -14.5726919 8.13283313 -16.63671875 7.15234375 C-20.1788586 6.65226581 -20.1788586 6.65226581 -23.63671875 7.15234375 Z " fill="#2EA0AD" transform="translate(153.63671875,383.84765625)"/>
<path d="M0 0 C3.72545211 2.99675732 5.84155443 5.90802475 6.59765625 10.59765625 C7.41572933 14.25886858 7.71110384 14.55910747 10.97265625 16.97265625 C11.92140625 17.52953125 12.87015625 18.08640625 13.84765625 18.66015625 C13.84765625 19.65015625 13.84765625 20.64015625 13.84765625 21.66015625 C4.45618722 21.75924561 -4.80976079 21.79014469 -14.15234375 20.66015625 C-14.45527344 21.45679687 -14.75820312 22.2534375 -15.0703125 23.07421875 C-17.45352793 29.10192055 -19.61814531 33.99640928 -24.15234375 38.66015625 C-25.80234375 38.33015625 -27.45234375 38.00015625 -29.15234375 37.66015625 C-28.54243484 34.10235429 -27.57397565 30.97729735 -26.15234375 27.66015625 C-34.34859317 33.05768635 -38.99922572 43.18224901 -41.71875 52.421875 C-43.51436187 61.69111467 -41.70218659 69.95107417 -37.91015625 78.44140625 C-36.3365174 80.95125403 -36.3365174 80.95125403 -33.4453125 81.04296875 C-32.42050781 80.95789063 -31.39570313 80.8728125 -30.33984375 80.78515625 C-25.22298935 80.54947084 -22.39880276 80.82918358 -18.15234375 83.66015625 C-18.15234375 84.32015625 -18.15234375 84.98015625 -18.15234375 85.66015625 C-18.81621094 85.95148438 -19.48007813 86.2428125 -20.1640625 86.54296875 C-26.64070724 89.5496447 -31.51153828 92.21130566 -34.11328125 99.265625 C-34.8673586 101.71810593 -35.54639694 104.16739947 -36.15234375 106.66015625 C-37.63734375 106.16515625 -37.63734375 106.16515625 -39.15234375 105.66015625 C-41.09237362 101.56035203 -41.25037738 98.13325801 -40.97119141 93.64746094 C-40.48923838 85.6674654 -41.27052894 80.90501162 -46.203125 74.3515625 C-52.34988984 65.86434612 -56.09136647 55.44398903 -57.00390625 45.07421875 C-57.06766449 44.372435 -57.13142273 43.67065125 -57.19711304 42.94760132 C-57.39727962 40.72732719 -57.58746676 38.50633155 -57.77734375 36.28515625 C-57.91209944 34.77077437 -58.04750962 33.25645058 -58.18359375 31.7421875 C-58.51408053 28.04881837 -58.83562932 24.35473485 -59.15234375 20.66015625 C-61.46234375 19.67015625 -63.77234375 18.68015625 -66.15234375 17.66015625 C-65.77568028 15.20138084 -65.47588778 13.95893925 -63.62109375 12.24609375 C-59.94041242 9.98218261 -56.95189989 8.48213936 -52.65234375 7.84765625 C-47.65515937 6.96479177 -45.45553768 4.28415496 -42.12890625 0.6328125 C-30.97187742 -10.50216687 -12.2522428 -7.62707674 0 0 Z " fill="#38B1BF" transform="translate(178.15234375,78.33984375)"/>
<path d="M0 0 C0.14302735 6.47785122 0.28537365 12.95571714 0.42724609 19.43359375 C0.47559167 21.63737324 0.52409325 23.84114932 0.57275391 26.04492188 C0.64266298 29.21223073 0.71201133 32.37955143 0.78125 35.546875 C0.80312378 36.53242371 0.82499756 37.51797241 0.84753418 38.53338623 C0.86755493 39.4540387 0.88757568 40.37469116 0.90820312 41.32324219 C0.93485046 42.53569611 0.93485046 42.53569611 0.96203613 43.77264404 C0.99741209 45.84816648 1 47.92417611 1 50 C-2.3 50.99 -5.6 51.98 -9 53 C-9.33 51.68 -9.66 50.36 -10 49 C-10.825 49.66 -11.65 50.32 -12.5 51 C-16.48093829 53.63194735 -19.29773865 53.68258632 -24 53 C-28.00606142 49.31020659 -29.81102939 45.07622255 -30.30078125 39.6953125 C-30.32727598 31.62325178 -30.34420692 25.97124572 -25 19.625 C-20.93686137 16.32369987 -16.97539924 16.84205082 -12 17 C-11.34 17.33 -10.68 17.66 -10 18 C-9.94583812 16.39620659 -9.90713362 14.79188594 -9.875 13.1875 C-9.85179687 12.29417969 -9.82859375 11.40085937 -9.8046875 10.48046875 C-9.81714173 7.74597286 -9.81714173 7.74597286 -12 5 C-10.56705502 4.15885829 -9.12845595 3.32734313 -7.6875 2.5 C-6.88699219 2.0359375 -6.08648437 1.571875 -5.26171875 1.09375 C-3 0 -3 0 0 0 Z M-19.66796875 24.15625 C-21.17109675 27.365274 -21.37095297 29.47483614 -21.3125 33 C-21.30863281 34.010625 -21.30476562 35.02125 -21.30078125 36.0625 C-20.96765324 39.31590604 -20.39611161 42.60388839 -18 45 C-16.48071962 45.07179964 -14.95832518 45.08392007 -13.4375 45.0625 C-12.61121094 45.05347656 -11.78492188 45.04445313 -10.93359375 45.03515625 C-10.29550781 45.02355469 -9.65742188 45.01195312 -9 45 C-8.91293108 41.72933434 -8.85958759 38.45896635 -8.8125 35.1875 C-8.78736328 34.25873047 -8.76222656 33.32996094 -8.73632812 32.37304688 C-8.72666016 31.48037109 -8.71699219 30.58769531 -8.70703125 29.66796875 C-8.6913208 28.84578857 -8.67561035 28.0236084 -8.65942383 27.17651367 C-9.08284787 24.47054566 -9.82209736 23.61726074 -12 22 C-16.50328034 21.22303336 -16.50328034 21.22303336 -19.66796875 24.15625 Z " fill="#DEDEDE" transform="translate(202,384)"/>
<path d="M0 0 C1.80130119 0.03025772 1.80130119 0.03025772 3.63899231 0.06112671 C4.92561264 0.09332306 6.21223297 0.12551941 7.5378418 0.15869141 C8.87589292 0.18488115 10.21396243 0.21014633 11.55204773 0.23452759 C15.06213782 0.30095747 18.57183794 0.37989686 22.081604 0.46148682 C25.6677766 0.54262378 29.25417691 0.61186858 32.84057617 0.68212891 C39.86884544 0.82156421 46.89672345 0.97532202 53.92456055 1.13525391 C53.92456055 6.41525391 53.92456055 11.69525391 53.92456055 17.13525391 C53.59456055 17.13525391 53.26456055 17.13525391 52.92456055 17.13525391 C52.92456055 12.18525391 52.92456055 7.23525391 52.92456055 2.13525391 C32.46456055 2.13525391 12.00456055 2.13525391 -9.07543945 2.13525391 C-9.07543945 39.09525391 -9.07543945 76.05525391 -9.07543945 114.13525391 C10.72456055 114.13525391 30.52456055 114.13525391 50.92456055 114.13525391 C50.92456055 106.54525391 50.92456055 98.95525391 50.92456055 91.13525391 C48.84272461 91.14685547 46.76088867 91.15845703 44.6159668 91.17041016 C42.60709757 91.17736126 40.59822804 91.18427779 38.58935547 91.19018555 C37.18960826 91.1952247 35.78986635 91.20205607 34.39013672 91.21069336 C32.38210278 91.2227771 30.37403097 91.22795197 28.3659668 91.23291016 C27.15626221 91.23814697 25.94655762 91.24338379 24.70019531 91.2487793 C21.92456055 91.13525391 21.92456055 91.13525391 20.92456055 90.13525391 C20.83786623 88.64653531 20.81752561 87.15380891 20.8269043 85.66259766 C20.82940186 84.85298584 20.83189941 84.04337402 20.83447266 83.20922852 C20.84357666 82.17419189 20.85268066 81.13915527 20.86206055 80.07275391 C20.88268555 76.79337891 20.90331055 73.51400391 20.92456055 70.13525391 C31.15456055 70.13525391 41.38456055 70.13525391 51.92456055 70.13525391 C51.92456055 61.55525391 51.92456055 52.97525391 51.92456055 44.13525391 C42.02456055 44.13525391 32.12456055 44.13525391 21.92456055 44.13525391 C21.92456055 43.80525391 21.92456055 43.47525391 21.92456055 43.13525391 C22.88346191 43.11543457 23.84236328 43.09561523 24.83032227 43.07519531 C28.38267608 42.99921245 31.93461631 42.91048461 35.48657227 42.81787109 C37.02490076 42.7795509 38.56331979 42.74470335 40.10180664 42.71337891 C42.31128331 42.66779331 44.52013503 42.60979051 46.72924805 42.54931641 C47.7637056 42.53198959 47.7637056 42.53198959 48.81906128 42.51431274 C52.81657595 42.48574369 52.81657595 42.48574369 55.92456055 40.13525391 C55.92456055 64.55525391 55.92456055 88.97525391 55.92456055 114.13525391 C64.17456055 114.13525391 72.42456055 114.13525391 80.92456055 114.13525391 C80.92456055 88.72525391 80.92456055 63.31525391 80.92456055 37.13525391 C81.58456055 37.13525391 82.24456055 37.13525391 82.92456055 37.13525391 C84.13799905 40.89999896 84.00647148 44.4504061 83.94628906 48.38232422 C83.93668152 49.10467255 83.92707397 49.82702087 83.91717529 50.57125854 C83.88426955 52.95206713 83.8439054 55.33268735 83.8034668 57.71337891 C83.77915743 59.36675356 83.75531428 61.02013512 83.73191833 62.67352295 C83.6691586 67.02026256 83.60006906 71.36687939 83.52966309 75.71350098 C83.45890631 80.15090352 83.39413332 84.58839295 83.32885742 89.02587891 C83.19994961 97.72910205 83.06380199 106.43218995 82.92456055 115.13525391 C73.68456055 115.46525391 64.44456055 115.79525391 54.92456055 116.13525391 C54.59456055 100.95525391 54.26456055 85.77525391 53.92456055 70.13525391 C50.45956055 71.12525391 50.45956055 71.12525391 46.92456055 72.13525391 C43.83496094 72.27050781 43.83496094 72.27050781 40.7722168 72.11181641 C39.11416016 72.03447266 39.11416016 72.03447266 37.42260742 71.95556641 C35.72201172 71.85888672 35.72201172 71.85888672 33.98706055 71.76025391 C32.82625977 71.70353516 31.66545898 71.64681641 30.46948242 71.58837891 C27.62064473 71.44769556 24.77251095 71.29288168 21.92456055 71.13525391 C21.92456055 77.07525391 21.92456055 83.01525391 21.92456055 89.13525391 C24.07858398 89.12365234 26.23260742 89.11205078 28.4519043 89.10009766 C30.53027194 89.09230654 32.60863797 89.08623009 34.68701172 89.08032227 C36.13526127 89.0752829 37.58350571 89.06845138 39.03173828 89.05981445 C41.10930643 89.04773144 43.18680752 89.04202179 45.2644043 89.03759766 C46.51600342 89.03236084 47.76760254 89.02712402 49.05712891 89.02172852 C51.92456055 89.13525391 51.92456055 89.13525391 52.92456055 90.13525391 C53.02402508 91.90384583 53.05536272 93.67636841 53.05737305 95.44775391 C53.05866211 96.52283203 53.05995117 97.59791016 53.0612793 98.70556641 C53.05741211 99.83736328 53.05354492 100.96916016 53.04956055 102.13525391 C53.05342773 103.26705078 53.05729492 104.39884766 53.0612793 105.56494141 C53.05999023 106.64001953 53.05870117 107.71509766 53.05737305 108.82275391 C53.05624512 109.81662109 53.05511719 110.81048828 53.05395508 111.83447266 C52.92456055 114.13525391 52.92456055 114.13525391 51.92456055 115.13525391 C30.97792785 116.63144196 9.92018873 115.56373611 -11.07543945 115.13525391 C-11.07543945 77.84525391 -11.07543945 40.55525391 -11.07543945 2.13525391 C-6.51545016 0.31125819 -4.66866316 -0.09828765 0 0 Z " fill="#537377" transform="translate(187.075439453125,137.86474609375)"/>
<path d="M0 0 C1.99301736 1.58066894 2.86543351 2.73086702 4 5 C4.12949598 6.74191213 4.20242472 8.48820201 4.24609375 10.234375 C4.27896484 11.28367187 4.31183594 12.33296875 4.34570312 13.4140625 C4.40646852 15.62230298 4.46381013 17.83064056 4.51757812 20.0390625 C4.56881836 21.62074219 4.56881836 21.62074219 4.62109375 23.234375 C4.6461499 24.19569336 4.67120605 25.15701172 4.69702148 26.14746094 C4.9601451 29.59463363 4.9601451 29.59463363 7 35 C2.71 35 -1.58 35 -6 35 C-5.67 33.35 -5.34 31.7 -5 30 C-4.91287922 28.39237512 -4.86944238 26.78185721 -4.8671875 25.171875 C-4.86589844 24.29015625 -4.86460937 23.4084375 -4.86328125 22.5 C-4.86908203 21.13875 -4.86908203 21.13875 -4.875 19.75 C-4.87113281 18.82703125 -4.86726563 17.9040625 -4.86328125 16.953125 C-4.86457031 16.0765625 -4.86585938 15.2 -4.8671875 14.296875 C-4.86831543 13.49604492 -4.86944336 12.69521484 -4.87060547 11.87011719 C-4.79534714 9.98578226 -4.79534714 9.98578226 -6 9 C-7.68183948 8.76712992 -9.3712416 8.58735834 -11.0625 8.4375 C-11.98160156 8.35371094 -12.90070313 8.26992188 -13.84765625 8.18359375 C-14.55792969 8.12300781 -15.26820313 8.06242187 -16 8 C-15.88944447 11.54227101 -15.75897691 15.0835436 -15.625 18.625 C-15.5940625 19.62402344 -15.563125 20.62304688 -15.53125 21.65234375 C-15.32760852 26.77732101 -15.01388817 31.20268917 -13 36 C-22.41002278 36.18451025 -22.41002278 36.18451025 -27 35 C-26.83773926 34.44892578 -26.67547852 33.89785156 -26.50830078 33.33007812 C-25.94090322 30.7290972 -25.87046099 28.38056746 -25.8671875 25.71875 C-25.86589844 24.71199219 -25.86460937 23.70523437 -25.86328125 22.66796875 C-25.86714844 21.62253906 -25.87101562 20.57710938 -25.875 19.5 C-25.87113281 18.45457031 -25.86726563 17.40914063 -25.86328125 16.33203125 C-25.86521484 14.82189453 -25.86521484 14.82189453 -25.8671875 13.28125 C-25.86831543 12.36408203 -25.86944336 11.44691406 -25.87060547 10.50195312 C-25.99021456 8.18920985 -26.34789257 6.21470449 -27 4 C-25.73308493 3.32591692 -24.46129251 2.66099503 -23.1875 2 C-22.47980469 1.62875 -21.77210938 1.2575 -21.04296875 0.875 C-19 0 -19 0 -16 0 C-15.67 1.32 -15.34 2.64 -15 4 C-14.071875 3.360625 -13.14375 2.72125 -12.1875 2.0625 C-7.61989725 -0.89300766 -5.23622411 -1.30905603 0 0 Z " fill="#DEDEDE" transform="translate(395,333)"/>
<path d="M0 0 C3.8125 0.625 3.8125 0.625 5.3984375 2.31640625 C6.96810634 4.70413002 8.3936893 7.14487421 9.8125 9.625 C10.92513129 11.32068065 12.04961878 13.00865886 13.1875 14.6875 C14.05375 15.986875 14.92 17.28625 15.8125 18.625 C15.8125 13.345 15.8125 8.065 15.8125 2.625 C19.8125 0.625 19.8125 0.625 23.8125 1.625 C23.8125 12.515 23.8125 23.405 23.8125 34.625 C15.8125 34.625 15.8125 34.625 14.00219727 33.17211914 C13.63151123 32.50817139 13.2608252 31.84422363 12.87890625 31.16015625 C12.45802734 30.44279297 12.03714844 29.72542969 11.60351562 28.98632812 C10.99540039 27.8484082 10.99540039 27.8484082 10.375 26.6875 C9.52217894 25.19919381 8.66931655 23.7109113 7.81640625 22.22265625 C7.45361572 21.55758057 7.0908252 20.89250488 6.71704102 20.20727539 C5.91031439 18.63516736 5.91031439 18.63516736 4.8125 17.625 C4.4825 23.235 4.1525 28.845 3.8125 34.625 C0.3475 35.12 0.3475 35.12 -3.1875 35.625 C-4.89242881 33.92007119 -4.3155442 31.77965739 -4.32644653 29.50598145 C-4.3244223 28.79244507 -4.32239807 28.07890869 -4.3203125 27.34375 C-4.32126923 26.61506714 -4.32222595 25.88638428 -4.32321167 25.13562012 C-4.32389335 23.5922029 -4.32203988 22.04878283 -4.31787109 20.50537109 C-4.31252262 18.135026 -4.31781642 15.76487041 -4.32421875 13.39453125 C-4.32355797 11.89843708 -4.3222768 10.40234303 -4.3203125 8.90625 C-4.32233673 8.19271362 -4.32436096 7.47917725 -4.32644653 6.74401855 C-4.29814993 0.8427745 -4.29814993 0.8427745 0 0 Z " fill="#2D97A3" transform="translate(171.1875,262.375)"/>
<path d="M0 0 C2.75603324 2.27085135 3.8761309 4.12805715 4.37963867 7.67236328 C4.54783173 10.95225678 4.60998676 14.21585348 4.625 17.5 C4.65059649 19.73969293 4.68415894 21.97931222 4.7265625 24.21875 C4.73550537 25.7027832 4.73550537 25.7027832 4.74462891 27.21679688 C4.90900799 30.46127404 4.90900799 30.46127404 7 35 C2.38 35 -2.24 35 -7 35 C-6.34 33.02 -5.68 31.04 -5 29 C-4.73139188 26.59614787 -4.73139188 26.59614787 -4.8046875 24.2578125 C-4.81113281 23.41992188 -4.81757813 22.58203125 -4.82421875 21.71875 C-4.84935547 20.43484375 -4.84935547 20.43484375 -4.875 19.125 C-4.88402344 18.24585938 -4.89304688 17.36671875 -4.90234375 16.4609375 C-4.92575423 14.3071729 -4.9616199 12.15354986 -5 10 C-8.8610854 8.56331706 -11.896427 7.88814792 -16 8 C-15.86095156 11.75028389 -15.71258389 15.50014281 -15.5625 19.25 C-15.52318359 20.31347656 -15.48386719 21.37695312 -15.44335938 22.47265625 C-15.38051758 24.00986328 -15.38051758 24.00986328 -15.31640625 25.578125 C-15.27974854 26.52075195 -15.24309082 27.46337891 -15.20532227 28.43457031 C-15.02060772 30.74251377 -14.64138388 32.78140524 -14 35 C-17.20015856 36.06671952 -18.88544294 35.94845472 -22.1875 35.5625 C-23.08855469 35.46066406 -23.98960937 35.35882813 -24.91796875 35.25390625 C-25.60503906 35.17011719 -26.29210937 35.08632813 -27 35 C-26.83773926 34.44892578 -26.67547852 33.89785156 -26.50830078 33.33007812 C-25.94090322 30.7290972 -25.87046099 28.38056746 -25.8671875 25.71875 C-25.86589844 24.71199219 -25.86460937 23.70523437 -25.86328125 22.66796875 C-25.86714844 21.62253906 -25.87101563 20.57710938 -25.875 19.5 C-25.87113281 18.45457031 -25.86726562 17.40914063 -25.86328125 16.33203125 C-25.86521484 14.82189453 -25.86521484 14.82189453 -25.8671875 13.28125 C-25.86831543 12.36408203 -25.86944336 11.44691406 -25.87060547 10.50195312 C-25.99021456 8.18920985 -26.34789257 6.21470449 -27 4 C-25.73308493 3.32591692 -24.46129251 2.66099503 -23.1875 2 C-22.47980469 1.62875 -21.77210938 1.2575 -21.04296875 0.875 C-19 0 -19 0 -16 0 C-15.67 1.32 -15.34 2.64 -15 4 C-14.071875 3.360625 -13.14375 2.72125 -12.1875 2.0625 C-7.67142224 -0.85966796 -5.17516473 -1.4786185 0 0 Z " fill="#DFDFDF" transform="translate(161,333)"/>
<path d="M0 0 C2.52737004 1.91731521 2.9716847 2.91505409 4 6 C4.1373219 7.78624645 4.22462478 9.57656546 4.28125 11.3671875 C4.33732422 12.94306641 4.33732422 12.94306641 4.39453125 14.55078125 C4.44673828 16.19626953 4.44673828 16.19626953 4.5 17.875 C4.56915151 20.03918609 4.64193983 22.2032597 4.71875 24.3671875 C4.74904297 25.32737793 4.77933594 26.28756836 4.81054688 27.27685547 C4.96975788 30.40166777 4.96975788 30.40166777 6 35 C1.71 35 -2.58 35 -7 35 C-6.67257813 33.8759375 -6.34515625 32.751875 -6.0078125 31.59375 C-4.82254865 26.85269459 -4.77205081 22.36236942 -4.875 17.5 C-4.88402344 16.67757813 -4.89304687 15.85515625 -4.90234375 15.0078125 C-4.92563135 13.00507917 -4.96149041 11.00249846 -5 9 C-10.445 8.505 -10.445 8.505 -16 8 C-15.85921577 11.75025223 -15.71258487 15.50011833 -15.5625 19.25 C-15.52318359 20.31347656 -15.48386719 21.37695312 -15.44335938 22.47265625 C-15.38051758 24.00986328 -15.38051758 24.00986328 -15.31640625 25.578125 C-15.27974854 26.52075195 -15.24309082 27.46337891 -15.20532227 28.43457031 C-15.02060772 30.74251377 -14.64138388 32.78140524 -14 35 C-15.79090253 35.19466332 -17.58276505 35.38051213 -19.375 35.5625 C-20.87160156 35.71912109 -20.87160156 35.71912109 -22.3984375 35.87890625 C-25 36 -25 36 -27 35 C-26.83846436 34.28142822 -26.67692871 33.56285645 -26.51049805 32.82250977 C-25.67641761 28.2109345 -25.81554546 23.61228227 -25.8125 18.9375 C-25.80025391 17.94427734 -25.78800781 16.95105469 -25.77539062 15.92773438 C-25.77345703 14.97060547 -25.77152344 14.01347656 -25.76953125 13.02734375 C-25.76542236 12.15843506 -25.76131348 11.28952637 -25.75708008 10.39428711 C-26.01672441 7.8351595 -26.71058038 6.20546012 -28 4 C-26.5437455 3.32880451 -25.08492133 2.66318193 -23.625 2 C-22.40683594 1.443125 -22.40683594 1.443125 -21.1640625 0.875 C-19 0 -19 0 -17 0 C-17 1.65 -17 3.3 -17 5 C-16.45730469 4.65066406 -15.91460937 4.30132812 -15.35546875 3.94140625 C-14.28232422 3.25884766 -14.28232422 3.25884766 -13.1875 2.5625 C-12.47980469 2.11003906 -11.77210937 1.65757812 -11.04296875 1.19140625 C-7.01585528 -1.15710161 -4.45092398 -1.112731 0 0 Z " fill="#DADADA" transform="translate(123,333)"/>
<path d="M0 0 C4.12593192 2.87855716 7.06537651 6.00862953 8.6875 10.875 C9.35703478 18.28378645 9.32636761 24.78740087 4.6875 30.875 C0.85104896 34.80982158 -2.51595748 35.18217934 -7.8125 35.375 C-13.08954907 35.20070111 -16.40157387 34.68300702 -20.3125 30.875 C-24.79003435 24.54469281 -24.9819391 18.42053503 -24.3125 10.875 C-23.0990847 6.33565722 -21.09882467 3.03802956 -17.1875 0.375 C-11.63840713 -2.31004494 -5.71548316 -1.94110749 0 0 Z M-15.3125 4.875 C-16.83521991 6.39771991 -16.51831982 7.75435159 -16.5625 9.875 C-16.46945377 17.17912922 -14.46594605 23.55531375 -9.3125 28.875 C-6.35585481 30.3533226 -3.57020263 29.93532783 -0.3125 29.875 C-0.2308918 27.49929457 -0.17172778 25.12644159 -0.125 22.75 C-0.09986328 22.08484375 -0.07472656 21.4196875 -0.04882812 20.734375 C0.03352124 15.13461798 -1.33625679 11.45846878 -4.7109375 7.046875 C-6.79897012 5.51904625 -8.37403084 5.34210162 -10.9375 5.125 C-11.73414063 5.04765625 -12.53078125 4.9703125 -13.3515625 4.890625 C-14.32222656 4.88289063 -14.32222656 4.88289063 -15.3125 4.875 Z " fill="#E1E1E1" transform="translate(354.3125,334.125)"/>
<path d="M0 0 C4.45146251 2.18526342 7.18885145 4.9394521 10 9 C12.0509828 15.15294839 11.85171714 22.44484857 9.8125 28.5625 C7.35731164 31.86430503 4.68011621 34.15994189 1 36 C-4.88458765 36.49580089 -10.21095619 36.83283074 -15.625 34.3125 C-21.17393788 28.9095868 -22.7781219 22.60173679 -23 15 C-21.75412731 9.76888237 -19.27566559 5.34036374 -15 2 C-10.25658416 -0.84812086 -5.37580155 -0.63198828 0 0 Z M-14 7 C-14.06437751 15.76821724 -13.20770031 23.35702035 -7.1875 30 C-4.08358804 31.41893118 -1.3628181 31.19400874 2 31 C3.27638887 24.23513897 3.8050872 16.22620754 -0.1796875 10.22265625 C-3.22386112 7.11543761 -5.23691287 6.02677499 -9.5625 5.875 C-12.83016556 5.60318432 -12.83016556 5.60318432 -14 7 Z " fill="#E2E2E2" transform="translate(194,333)"/>
<path d="M0 0 C3.68025309 2.79699235 5.34747727 4.8859065 6.125 9.375 C6.23307773 13.18266163 6.18708957 16.94778185 6.03515625 20.75390625 C6.12522325 24.38399796 6.79573568 27.01821968 8.125 30.375 C2.84913793 33.44236167 2.84913793 33.44236167 -0.5625 33.125 C-2.33599582 32.54981217 -4.10623896 31.96458701 -5.875 31.375 C-6.4525 31.87 -7.03 32.365 -7.625 32.875 C-9.875 34.375 -9.875 34.375 -13.25 34.4375 C-17.77948959 33.10989098 -20.26257778 31.29800192 -22.875 27.375 C-23.9375 23.6875 -23.9375 23.6875 -23.875 20.375 C-21.94363755 17.96721744 -19.83151628 16.67377994 -17.08203125 15.33203125 C-16.36982422 14.98076172 -15.65761719 14.62949219 -14.92382812 14.26757812 C-14.18583984 13.91115234 -13.44785156 13.55472656 -12.6875 13.1875 C-11.93791016 12.81947266 -11.18832031 12.45144531 -10.41601562 12.07226562 C-8.57167788 11.16771782 -6.72368755 10.27062424 -4.875 9.375 C-4.875 7.395 -4.875 5.415 -4.875 3.375 C-9.83809296 5.00081757 -9.83809296 5.00081757 -13.3125 8.5625 C-13.498125 9.160625 -13.68375 9.75875 -13.875 10.375 C-16.875 9.375 -16.875 9.375 -18.125 7.125 C-18.98103979 3.98618745 -19.09903695 2.39429113 -17.875 -0.625 C-12.65053396 -4.2168204 -5.38125884 -2.64502553 0 0 Z M-9.4375 16.375 C-10.26378906 16.931875 -11.09007812 17.48875 -11.94140625 18.0625 C-12.57949219 18.495625 -13.21757812 18.92875 -13.875 19.375 C-13.545 21.355 -13.215 23.335 -12.875 25.375 C-8.34359347 26.30880961 -8.34359347 26.30880961 -3.875 25.375 C-3.875 21.415 -3.875 17.455 -3.875 13.375 C-5.9100433 13.375 -7.82495897 15.28483142 -9.4375 16.375 Z " fill="#E0E0E0" transform="translate(271.875,334.625)"/>
<path d="M0 0 C5.28 0 10.56 0 16 0 C16 2.31 16 4.62 16 7 C16.79368211 10.49909539 16.79368211 10.49909539 17.9375 13.875 C18.29714844 15.00679688 18.65679687 16.13859375 19.02734375 17.3046875 C19.74231177 19.88401196 19.74231177 19.88401196 21 21 C21.86992154 18.94409546 22.72037689 16.87994664 23.5625 14.8125 C24.03816406 13.66394531 24.51382813 12.51539063 25.00390625 11.33203125 C26.35792314 6.80271201 25.45284513 4.35853539 24 0 C28.29 0 32.58 0 37 0 C36.10244995 1.26577881 36.10244995 1.26577881 35.18676758 2.55712891 C32.9639466 5.89682657 31.48396742 9.34825288 30.01171875 13.0859375 C29.46473046 14.44292522 28.91718686 15.79968921 28.36914062 17.15625 C27.52685253 19.26209255 26.68962329 21.36957836 25.86254883 23.48144531 C22.25181956 32.66224757 18.86531459 41.06360584 10.375 46.76171875 C3.17385214 49.56874514 3.17385214 49.56874514 -1.125 47.75 C-2.548125 46.88375 -2.548125 46.88375 -4 46 C-2.55746343 42.63408134 -0.66735273 40.48952921 2 38 C5 39 5 39 7 42 C9.48587357 41.66855019 10.67459316 41.38738909 12.3125 39.4375 C14.44612047 31.8728456 10.30665206 23.758488 7.625 16.8125 C7.22539062 15.74580078 6.82578125 14.67910156 6.4140625 13.58007812 C4.5545448 8.6896689 2.71466042 4.52443403 0 0 Z " fill="#DEDEDE" transform="translate(207,402)"/>
<path d="M0 0 C5.28 0 10.56 0 16 0 C16 2.64 16 5.28 16 8 C16.78215405 11.57769833 16.78215405 11.57769833 17.9375 14.9375 C18.29714844 16.06027344 18.65679687 17.18304688 19.02734375 18.33984375 C19.74713941 20.88756715 19.74713941 20.88756715 21 22 C21.86979461 19.77585391 22.72083184 17.54727408 23.5625 15.3125 C23.80935547 14.68666016 24.05621094 14.06082031 24.31054688 13.41601562 C26.2937991 8.08078782 25.74032351 5.22097054 24 0 C27.96 0 31.92 0 36 0 C35.34 1.32 34.68 2.64 34 4 C32.98229339 6.43795618 31.98032832 8.87981738 30.98828125 11.328125 C30.3895558 12.78291618 29.78991656 14.23733156 29.18945312 15.69140625 C28.25134309 17.96349457 27.31779484 20.23685 26.3996582 22.51708984 C18.32214008 42.53992662 18.32214008 42.53992662 9.5625 47.0625 C4.79657982 48.31668952 0.52949298 48.26474649 -4 46 C-2.55922954 42.63820226 -0.75249979 40.40843732 2 38 C2.66 38 3.32 38 4 38 C5.625 40 5.625 40 7 42 C9.530472 41.66260373 10.6818563 41.3938922 12.3125 39.375 C14.28055574 32.57626198 10.42712286 24.84898531 8.1875 18.5 C7.84396484 17.49324219 7.50042969 16.48648437 7.14648438 15.44921875 C5.2169013 9.92474639 3.10300014 4.96480022 0 0 Z " fill="#DFDFDF" transform="translate(340,402)"/>
<path d="M0 0 C3.625 1.5 3.625 1.5 6 3 C5.5205537 7.21912747 4.83374881 9.79663178 2 13 C1.4225 12.38125 0.845 11.7625 0.25 11.125 C-3.52241059 7.56216777 -5.87885864 6.89875833 -11 7 C-10.29875 7.56847656 -9.5975 8.13695312 -8.875 8.72265625 C-6.90369748 10.32701795 -4.9378112 11.93805098 -2.9765625 13.5546875 C-1.17335698 15.03606107 0.64135375 16.50377629 2.4765625 17.9453125 C5.64883672 20.5177385 7.68598317 22.26729406 9.3125 26.0625 C8.84944638 30.41520403 7.11833836 31.95253297 4 35 C-1.54599599 36.84866533 -8.01704471 38.22133177 -13.56640625 35.94921875 C-15.48881815 34.72836683 -17.26585658 33.47402191 -19 32 C-18.24432948 28.21369298 -16.87402727 26.5958956 -14 24 C-11.46553315 25.16975393 -9.31308279 26.47225558 -7 28.0625 C-4.47971572 29.6901836 -2.90277468 30.55341928 0 31 C-1.92343368 25.75211304 -6.64896799 23.47749892 -11.0546875 20.4140625 C-14.18284025 17.85013889 -16.05068302 15.53225631 -18 12 C-18.0625 8.375 -18.0625 8.375 -17 5 C-11.65762965 -0.20538649 -7.21415936 -0.66184948 0 0 Z " fill="#DCDCDC" transform="translate(266,401)"/>
<path d="M0 0 C0.78375 0.495 1.5675 0.99 2.375 1.5 C1.715 4.47 1.055 7.44 0.375 10.5 C-3.03517092 10.5 -3.47030266 10.06038698 -6 8 C-8.48405445 6.12772966 -9.38185705 5.52586627 -12.5625 5.1875 C-13.243125 5.290625 -13.92375 5.39375 -14.625 5.5 C-10.81410313 8.8243994 -6.97391951 12.01513692 -2.9375 15.0625 C3.40366111 20.00535379 3.40366111 20.00535379 5.375 23.5 C5.4375 26.5625 5.4375 26.5625 4.375 29.5 C-1.29102888 34.8754633 -5.57841467 34.82419379 -13.1796875 34.80078125 C-17.58188843 34.41646212 -19.46037764 33.4784681 -22.625 30.5 C-22.08273019 26.70411134 -20.42372437 25.02788007 -17.625 22.5 C-15.09053315 23.66975393 -12.93808279 24.97225558 -10.625 26.5625 C-8.10471572 28.1901836 -6.52777468 29.05341928 -3.625 29.5 C-5.54843368 24.25211304 -10.27396799 21.97749892 -14.6796875 18.9140625 C-18.63817564 15.66957222 -21.25258243 12.52760677 -22.1875 7.4375 C-21.42722777 3.46718949 -19.71483334 2.01498062 -16.625 -0.5 C-11.01341426 -2.37052858 -5.45214398 -2.25605958 0 0 Z " fill="#DCDCDC" transform="translate(301.625,402.5)"/>
<path d="M0 0 C4.99393633 0.07716899 8.57048754 0.34284641 12.75 3.3125 C13.6471875 3.93125 13.6471875 3.93125 14.5625 4.5625 C16.50740934 7.42868219 16.63400095 9.890528 16.75 13.3125 C15.22479268 17.27803903 13.77862017 19.28387983 10.75 22.3125 C13.39 25.9425 16.03 29.5725 18.75 33.3125 C16.75 35.3125 16.75 35.3125 13.5625 35.5 C7.97047967 33.75822318 5.98937979 29.97071104 2.75 25.3125 C2.09 24.6525 1.43 23.9925 0.75 23.3125 C0.75 26.6125 0.75 29.9125 0.75 33.3125 C-6 35.4375 -6 35.4375 -8.25 34.3125 C-8.299377 29.79184572 -8.33570823 25.27134783 -8.35986328 20.75048828 C-8.36993118 19.21204902 -8.38358646 17.67362893 -8.40087891 16.13525391 C-8.42509317 13.92605867 -8.43647491 11.71711605 -8.4453125 9.5078125 C-8.45563507 8.81817413 -8.46595764 8.12853577 -8.47659302 7.41799927 C-8.47699478 5.71449094 -8.37191026 4.01164057 -8.25 2.3125 C-5.50090732 -0.43659268 -3.83354488 0.01312858 0 0 Z M-0.25 8.3125 C-0.25 10.6225 -0.25 12.9325 -0.25 15.3125 C2.66482778 16.12217438 4.21113217 16.53095993 7.0625 15.375 C7.619375 15.024375 8.17625 14.67375 8.75 14.3125 C8.75 12.6625 8.75 11.0125 8.75 9.3125 C5.79335481 7.8341774 3.00770263 8.25217217 -0.25 8.3125 Z " fill="#2C94A0" transform="translate(301.25,262.6875)"/>
<path d="M0 0 C1.00933594 -0.01417969 2.01867187 -0.02835937 3.05859375 -0.04296875 C5.5625 0.1875 5.5625 0.1875 7.5625 2.1875 C7.875 4.6875 7.875 4.6875 7.5625 7.1875 C4.14155758 9.46812828 2.88062778 9.40675007 -1.125 9.3125 C-2.61580078 9.28542969 -2.61580078 9.28542969 -4.13671875 9.2578125 C-4.89597656 9.23460937 -5.65523437 9.21140625 -6.4375 9.1875 C-6.7675 10.8375 -7.0975 12.4875 -7.4375 14.1875 C-3.1475 14.1875 1.1425 14.1875 5.5625 14.1875 C5.5625 16.4975 5.5625 18.8075 5.5625 21.1875 C1.15335217 22.28978696 -2.92132401 22.26404536 -7.4375 22.1875 C-7.1075 23.5075 -6.7775 24.8275 -6.4375 26.1875 C-2.1475 26.5175 2.1425 26.8475 6.5625 27.1875 C7.5625 32.1875 7.5625 32.1875 7.5625 34.1875 C3.9170658 34.38338601 0.2711421 34.56780536 -3.375 34.75 C-4.93637695 34.83411133 -4.93637695 34.83411133 -6.52929688 34.91992188 C-7.51865234 34.96826172 -8.50800781 35.01660156 -9.52734375 35.06640625 C-10.44378662 35.1135376 -11.36022949 35.16066895 -12.30444336 35.20922852 C-14.4375 35.1875 -14.4375 35.1875 -15.4375 34.1875 C-15.52593793 31.73919574 -15.55278752 29.31929401 -15.53515625 26.87109375 C-15.5337413 26.14003922 -15.53232635 25.40898468 -15.53086853 24.65577698 C-15.52525408 22.31214368 -15.51269922 19.96860461 -15.5 17.625 C-15.49498686 16.03971492 -15.49042363 14.45442834 -15.48632812 12.86914062 C-15.47527997 8.9752239 -15.45800572 5.08137795 -15.4375 1.1875 C-10.28408199 0.56002063 -5.1985177 0.03380051 0 0 Z " fill="#2C8F9A" transform="translate(149.4375,262.8125)"/>
<path d="M0 0 C7.09434233 -0.09733092 13.98194143 -0.10087193 21 1 C21 3.31 21 5.62 21 8 C14.565 8.495 14.565 8.495 8 9 C8 10.32 8 11.64 8 13 C11.96 13.33 15.92 13.66 20 14 C20.33 15.65 20.66 17.3 21 19 C20.34 19.99 19.68 20.98 19 22 C16.1796875 22.29296875 16.1796875 22.29296875 12.875 22.1875 C11.77929688 22.16042969 10.68359375 22.13335937 9.5546875 22.10546875 C8.71164062 22.07066406 7.86859375 22.03585937 7 22 C7.33 23.65 7.66 25.3 8 27 C12.29 27 16.58 27 21 27 C21 29.31 21 31.62 21 34 C10.605 34.495 10.605 34.495 0 35 C-1.47712785 32.0457443 -1.12989998 29.38739796 -1.1328125 26.09375 C-1.13376923 25.41324585 -1.13472595 24.7327417 -1.13571167 24.03161621 C-1.13639231 22.59252836 -1.13454607 21.15343743 -1.13037109 19.71435547 C-1.12502115 17.50871907 -1.13031991 15.3032863 -1.13671875 13.09765625 C-1.13605795 11.70052038 -1.13477674 10.30338464 -1.1328125 8.90625 C-1.13168457 7.63072266 -1.13055664 6.35519531 -1.12939453 5.04101562 C-1 2 -1 2 0 0 Z " fill="#2C919C" transform="translate(329,263)"/>
<path d="M0 0 C4.21285902 1.7787627 5.93145393 3.97177871 8 8 C4.54976303 10.09478673 4.54976303 10.09478673 2.1875 9.6875 C1.465625 9.460625 0.74375 9.23375 0 9 C-2.33094534 8.6503582 -4.66404762 8.31445513 -7 8 C-6.29816676 11.22234339 -6.29816676 11.22234339 -3.34765625 12.5 C-2.26355469 12.995 -1.17945313 13.49 -0.0625 14 C5.7838765 16.67581475 5.7838765 16.67581475 8 20 C8.73446576 24.56051995 8.59262059 28.01911074 6.1875 32 C2.62295114 35.2590161 -0.99761237 35.45590186 -5.640625 35.41796875 C-9.71956398 34.69537525 -12.51088533 32.22992261 -15 29 C-15.6875 26.796875 -15.6875 26.796875 -16 25 C-13.6875 23.4375 -13.6875 23.4375 -11 22 C-10.01 22.33 -9.02 22.66 -8 23 C-7.67 23.99 -7.34 24.98 -7 26 C-4.69 26 -2.38 26 0 26 C0 25.01 0 24.02 0 23 C-0.83144531 22.62488281 -1.66289062 22.24976563 -2.51953125 21.86328125 C-4.14955078 21.09564453 -4.14955078 21.09564453 -5.8125 20.3125 C-6.89144531 19.81363281 -7.97039062 19.31476563 -9.08203125 18.80078125 C-12.28612321 16.82342329 -13.48264255 15.41140153 -15 12 C-15.08254987 7.37720728 -14.49422915 5.56655537 -11.4375 2.0625 C-7.59660109 -0.73507781 -4.64209451 -0.58947232 0 0 Z " fill="#2C929D" transform="translate(221,263)"/>
<path d="M0 0 C5.72329423 0.06910674 10.55999933 0.33599176 14.9375 4.3125 C16.73823492 6.89860218 17.63286434 9.17240933 17.9375 12.3125 C16.915775 15.9786897 15.79548867 18.32251307 13.3125 21.1875 C9.67204574 22.9119257 5.92314448 23.0655263 1.9375 23.3125 C1.88851562 24.09496094 1.83953125 24.87742187 1.7890625 25.68359375 C1.71429688 26.69550781 1.63953125 27.70742188 1.5625 28.75 C1.49289063 29.75933594 1.42328125 30.76867187 1.3515625 31.80859375 C1.21492187 32.63488281 1.07828125 33.46117187 0.9375 34.3125 C-1.54661615 35.55455807 -3.31449104 35.45342354 -6.0625 35.3125 C-7.76742881 33.60757119 -7.1905442 31.46715739 -7.20144653 29.19348145 C-7.1994223 28.47994507 -7.19739807 27.76640869 -7.1953125 27.03125 C-7.19626923 26.30256714 -7.19722595 25.57388428 -7.19821167 24.82312012 C-7.19889335 23.2797029 -7.19703988 21.73628283 -7.19287109 20.19287109 C-7.18752262 17.822526 -7.19281642 15.45237041 -7.19921875 13.08203125 C-7.19855797 11.58593708 -7.1972768 10.08984303 -7.1953125 8.59375 C-7.19733673 7.88021362 -7.19936096 7.16667725 -7.20144653 6.43151855 C-7.1704384 -0.03521259 -6.32637355 0.13800356 0 0 Z M0.9375 8.3125 C0.9375 10.6225 0.9375 12.9325 0.9375 15.3125 C3.06689828 16.66276777 3.06689828 16.66276777 6.0625 15.375 C7.485625 14.8490625 7.485625 14.8490625 8.9375 14.3125 C8.9375 12.6625 8.9375 11.0125 8.9375 9.3125 C6.22870665 7.95810332 3.92816732 8.24748549 0.9375 8.3125 Z " fill="#2C8F9A" transform="translate(247.0625,262.6875)"/>
<path d="M0 0 C2.61918417 1.09053305 4.63616293 2.39057902 7 4 C5.31102895 10.00523042 0.66096925 14.28723573 -3.60546875 18.63671875 C-5.20499088 20.27189527 -5.20499088 20.27189527 -7 23 C-6.67 24.98 -6.34 26.96 -6 29 C-1.71 29.33 2.58 29.66 7 30 C6 33 6 33 4.125 34.6875 C-0.59365078 36.66933333 -4.96106276 36.76213001 -10 36 C-13.44573096 34.56485652 -15.32354979 32.33482733 -17.0234375 28.98046875 C-19.88031544 21.49754535 -20.09755146 14.14986111 -16.9921875 6.7265625 C-13.18829031 0.10718235 -6.93036635 -0.8691176 0 0 Z M-12 7 C-11.93521484 9.0409505 -11.93521484 9.0409505 -11.625 11.375 C-11.53476562 12.16648437 -11.44453125 12.95796875 -11.3515625 13.7734375 C-11.03660446 16.16418493 -11.03660446 16.16418493 -10 19 C-5.92115955 17.64038652 -5.06183628 15.69708575 -3 12 C-2.66290938 9.24741188 -2.66290938 9.24741188 -3 7 C-5.56172051 5.71913974 -9.77945035 4.77945035 -12 7 Z " fill="#DDDDDD" transform="translate(330,401)"/>
<path d="M0 0 C5.28 0 10.56 0 16 0 C15.67 2.31 15.34 4.62 15 7 C15.35467472 9.15225241 15.35467472 9.15225241 16.21484375 10.96484375 C16.48876953 11.61904297 16.76269531 12.27324219 17.04492188 12.94726562 C17.33947266 13.60404297 17.63402344 14.26082031 17.9375 14.9375 C18.37352539 15.96327148 18.37352539 15.96327148 18.81835938 17.00976562 C19.53067166 18.67961245 20.26327948 20.34077726 21 22 C21.70146314 19.77518771 22.38565954 17.54492632 23.0625 15.3125 C23.63677734 13.45044922 23.63677734 13.45044922 24.22265625 11.55078125 C25.22761938 6.96027129 24.45208234 4.35624703 23 0 C27.62 0 32.24 0 37 0 C36.10925781 1.216875 35.21851563 2.43375 34.30078125 3.6875 C30.4802353 9.41775757 28.37318671 15.50689285 26.1875 22 C25.4123015 24.25074001 24.63507279 26.50078217 23.85546875 28.75 C23.52184326 29.73484375 23.18821777 30.7196875 22.84448242 31.734375 C22 34 22 34 21 35 C19.33382885 35.04063832 17.66611905 35.042721 16 35 C12.37138244 27.95767162 9.29823036 20.74184658 6.26757812 13.42578125 C5.88923828 12.52730469 5.51089844 11.62882812 5.12109375 10.703125 C4.7852124 9.89520508 4.44933105 9.08728516 4.10327148 8.25488281 C3.05276018 5.92786403 3.05276018 5.92786403 1.36743164 3.83105469 C0 2 0 2 0 0 Z " fill="#DCDCDC" transform="translate(209,334)"/>
<path d="M0 0 C4.62 0 9.24 0 14 0 C13.67547852 1.16007568 13.35095703 2.32015137 13.01660156 3.51538086 C11.9895559 7.63935985 11.74179267 11.4921918 11.734375 15.75390625 C11.73150482 16.81072853 11.73150482 16.81072853 11.72857666 17.88890076 C11.72722674 19.36530926 11.7308389 20.84173012 11.73925781 22.31811523 C11.74999118 24.56065814 11.73931384 26.80240312 11.7265625 29.04492188 C11.72788399 30.48958508 11.73044618 31.93424779 11.734375 33.37890625 C11.73663086 34.6738501 11.73888672 35.96879395 11.74121094 37.30297852 C12.01478539 41.21122186 12.79436526 44.29300243 14 48 C4.58997722 49.33257403 4.58997722 49.33257403 0 48 C0.16233124 47.42378906 0.32466248 46.84757812 0.49191284 46.25390625 C0.9863119 44.06072128 1.1268078 42.17977252 1.12939453 39.9375 C1.13254669 39.14988281 1.13569885 38.36226563 1.13894653 37.55078125 C1.1369223 36.70902344 1.13489807 35.86726563 1.1328125 35 C1.13424759 33.69095703 1.13424759 33.69095703 1.13571167 32.35546875 C1.13639122 30.5130201 1.13455262 28.67056903 1.13037109 26.828125 C1.12501968 24.01036189 1.1303237 21.19275817 1.13671875 18.375 C1.13605793 16.58333298 1.13477668 14.79166606 1.1328125 13 C1.13483673 12.15824219 1.13686096 11.31648438 1.13894653 10.44921875 C1.13579437 9.66160156 1.13264221 8.87398438 1.12939453 8.0625 C1.12859894 7.37285156 1.12780334 6.68320312 1.12698364 5.97265625 C1.03576095 3.63385485 1.03576095 3.63385485 0 0 Z " fill="#E7E7E7" transform="translate(77,320)"/>
<path d="M0 0 C1.56047445 0.00015913 3.12095416 0.00585397 4.68139648 0.01586914 C5.91115456 0.01799156 5.91115456 0.01799156 7.16575623 0.02015686 C9.79470406 0.0257725 12.42356797 0.0383276 15.05249023 0.05102539 C16.8304838 0.05603838 18.60847869 0.06060163 20.38647461 0.06469727 C24.75434569 0.07574701 29.12215371 0.09302208 33.48999023 0.11352539 C33.48999023 4.73352539 33.48999023 9.35352539 33.48999023 14.11352539 C30.26031644 14.19464278 27.0326901 14.25408131 23.80249023 14.30102539 C22.43447266 14.33873047 22.43447266 14.33873047 21.03881836 14.37719727 C12.481035 14.4705549 12.481035 14.4705549 8.48999023 11.11352539 C8.15999023 10.45352539 7.82999023 9.79352539 7.48999023 9.11352539 C4.96906851 8.720936 4.96906851 8.720936 2.05249023 8.61352539 C-3.28855172 8.33498344 -3.28855172 8.33498344 -5.51000977 6.11352539 C-4.7833248 0.15470863 -4.7833248 0.15470863 0 0 Z " fill="#E2E3E3" transform="translate(140.510009765625,238.886474609375)"/>
<path d="M0 0 C0.66 0.33 1.32 0.66 2 1 C2 3.31 2 5.62 2 8 C4.64 8 7.28 8 10 8 C9.34 9.32 8.68 10.64 8 12 C6.02 12 4.04 12 2 12 C2.33 19.92 2.66 27.84 3 36 C5.40545638 37.20272819 6.94996953 37.10071472 9.625 37.0625 C10.85089844 37.04896484 10.85089844 37.04896484 12.1015625 37.03515625 C12.72804688 37.02355469 13.35453125 37.01195312 14 37 C13 40 13 40 11.125 41.6875 C6.40038113 43.67183993 2.03943504 43.87642348 -3 43 C-6.86356467 40.34853405 -6.86356467 40.34853405 -8 37 C-8.49429144 32.62284088 -8.30527331 28.38707288 -8 24 C-7.92007812 22.84113281 -7.84015625 21.68226563 -7.7578125 20.48828125 C-7.5364915 17.6547018 -7.28532279 14.82775264 -7 12 C-7.99 12 -8.98 12 -10 12 C-10 10 -10 10 -8.125 7.875 C-6 6 -6 6 -4 6 C-3.71125 5.38125 -3.4225 4.7625 -3.125 4.125 C-2 2 -2 2 0 0 Z " fill="#E3E3E3" transform="translate(294,326)"/>
<path d="M0 0 C1.99301736 1.58066894 2.86543351 2.73086702 4 5 C4.12949598 6.74191213 4.20242472 8.48820201 4.24609375 10.234375 C4.27896484 11.28367187 4.31183594 12.33296875 4.34570312 13.4140625 C4.40646852 15.62230298 4.46381013 17.83064056 4.51757812 20.0390625 C4.56881836 21.62074219 4.56881836 21.62074219 4.62109375 23.234375 C4.6461499 24.19569336 4.67120605 25.15701172 4.69702148 26.14746094 C4.9601451 29.59463363 4.9601451 29.59463363 7 35 C2.71 35 -1.58 35 -6 35 C-5.67 33.35 -5.34 31.7 -5 30 C-4.74658767 26.62699451 -4.72388728 23.25659152 -4.6875 19.875 C-4.65849609 18.96878906 -4.62949219 18.06257813 -4.59960938 17.12890625 C-4.3770559 12.07219138 -4.3770559 12.07219138 -6.87890625 7.95703125 C-7.57886719 7.64121094 -8.27882813 7.32539063 -9 7 C-9.7425 6.608125 -10.485 6.21625 -11.25 5.8125 C-11.8275 5.544375 -12.405 5.27625 -13 5 C-11.99610425 2.26210251 -11.3046066 1.17768718 -8.75 -0.3125 C-5.4133137 -1.14667158 -3.30097965 -0.93288555 0 0 Z " fill="#E6E6E6" transform="translate(395,333)"/>
<path d="M0 0 C0.02505615 0.91289795 0.0501123 1.8257959 0.07592773 2.76635742 C0.17131607 6.16767631 0.27053402 9.56883939 0.37231445 12.9699707 C0.41550705 14.43932768 0.45719256 15.9087298 0.49731445 17.37817383 C0.55539882 19.49574355 0.61898098 21.61308937 0.68359375 23.73046875 C0.72025146 25.00301514 0.75690918 26.27556152 0.79467773 27.58666992 C0.93925819 31.28945397 0.93925819 31.28945397 2 36 C-2.29 36 -6.58 36 -11 36 C-11 33 -11 33 -10.51049805 31.08569336 C-9.58509682 27.3048695 -9.81543701 23.4364214 -9.8125 19.5625 C-9.80025391 18.71623047 -9.78800781 17.86996094 -9.77539062 16.99804688 C-9.76493992 12.54953128 -9.89980641 9.04266513 -12 5 C-10.56705502 4.15885829 -9.12845595 3.32734313 -7.6875 2.5 C-6.88699219 2.0359375 -6.08648437 1.571875 -5.26171875 1.09375 C-3 0 -3 0 0 0 Z " fill="#DADADA" transform="translate(323,333)"/>
<path d="M0 0 C0.82200683 3.64037537 1.16783601 7.0885247 1.28125 10.81640625 C1.31863281 11.91017578 1.35601562 13.00394531 1.39453125 14.13085938 C1.46496369 16.42252236 1.53527578 18.71418904 1.60546875 21.00585938 C1.64285156 22.09833984 1.68023437 23.19082031 1.71875 24.31640625 C1.74904297 25.31099854 1.77933594 26.30559082 1.81054688 27.33032227 C1.97789975 29.68857441 2.33670152 31.73854155 3 34 C-0.20015856 35.06671952 -1.88544294 34.94845472 -5.1875 34.5625 C-6.08855469 34.46066406 -6.98960937 34.35882813 -7.91796875 34.25390625 C-8.60503906 34.17011719 -9.29210937 34.08632813 -10 34 C-9.83773926 33.44892578 -9.67547852 32.89785156 -9.50830078 32.33007812 C-8.94090322 29.7290972 -8.87046099 27.38056746 -8.8671875 24.71875 C-8.86589844 23.71199219 -8.86460937 22.70523437 -8.86328125 21.66796875 C-8.86714844 20.62253906 -8.87101563 19.57710938 -8.875 18.5 C-8.87113281 17.45457031 -8.86726562 16.40914063 -8.86328125 15.33203125 C-8.86521484 13.82189453 -8.86521484 13.82189453 -8.8671875 12.28125 C-8.86831543 11.36408203 -8.86944336 10.44691406 -8.87060547 9.50195312 C-8.99021456 7.18920985 -9.34789257 5.21470449 -10 3 C-6.27034861 0.96564469 -4.33094958 0 0 0 Z " fill="#E5E5E5" transform="translate(144,334)"/>
<path d="M0 0 C1.56047445 0.00015913 3.12095416 0.00585397 4.68139648 0.01586914 C5.91115456 0.01799156 5.91115456 0.01799156 7.16575623 0.02015686 C9.79470406 0.0257725 12.42356797 0.0383276 15.05249023 0.05102539 C16.8304838 0.05603838 18.60847869 0.06060163 20.38647461 0.06469727 C24.75434569 0.07574701 29.12215371 0.09302208 33.48999023 0.11352539 C33.48999023 2.75352539 33.48999023 5.39352539 33.48999023 8.11352539 C28.25725692 8.16288364 23.02465847 8.19922488 17.79174805 8.22338867 C16.01079957 8.2334597 14.22986767 8.24711724 12.44897461 8.2644043 C9.8922924 8.28860452 7.33582838 8.29999723 4.77905273 8.30883789 C3.98004547 8.31916046 3.18103821 8.32948303 2.3578186 8.34011841 C0.40041804 8.34051765 -1.55644053 8.23593608 -3.51000977 8.11352539 C-4.17000977 7.45352539 -4.83000977 6.79352539 -5.51000977 6.11352539 C-4.7833248 0.15470863 -4.7833248 0.15470863 0 0 Z " fill="#D9DADA" transform="translate(140.510009765625,226.886474609375)"/>
<path d="M0 0 C1.56047445 0.00015913 3.12095416 0.00585397 4.68139648 0.01586914 C5.91115456 0.01799156 5.91115456 0.01799156 7.16575623 0.02015686 C9.79470406 0.0257725 12.42356797 0.0383276 15.05249023 0.05102539 C16.8304838 0.05603838 18.60847869 0.06060163 20.38647461 0.06469727 C24.75434569 0.07574701 29.12215371 0.09302208 33.48999023 0.11352539 C33.48999023 2.75352539 33.48999023 5.39352539 33.48999023 8.11352539 C28.25725692 8.16288364 23.02465847 8.19922488 17.79174805 8.22338867 C16.01079957 8.2334597 14.22986767 8.24711724 12.44897461 8.2644043 C9.8922924 8.28860452 7.33582838 8.29999723 4.77905273 8.30883789 C3.98004547 8.31916046 3.18103821 8.32948303 2.3578186 8.34011841 C0.40041804 8.34051765 -1.55644053 8.23593608 -3.51000977 8.11352539 C-4.17000977 7.45352539 -4.83000977 6.79352539 -5.51000977 6.11352539 C-4.7833248 0.15470863 -4.7833248 0.15470863 0 0 Z " fill="#FDFEFE" transform="translate(140.510009765625,214.886474609375)"/>
<path d="M0 0 C0.01981934 0.8470752 0.03963867 1.69415039 0.06005859 2.56689453 C0.13849595 5.73169002 0.22520049 8.8961242 0.31738281 12.06054688 C0.35549202 13.42601921 0.39037536 14.79158577 0.421875 16.15722656 C0.46791878 18.12847607 0.52681049 20.09941204 0.5859375 22.0703125 C0.6173584 23.25383301 0.6487793 24.43735352 0.68115234 25.65673828 C1.00415768 29.04359516 1.79649201 31.82865088 3 35 C1.20909747 35.19466332 -0.58276505 35.38051213 -2.375 35.5625 C-3.87160156 35.71912109 -3.87160156 35.71912109 -5.3984375 35.87890625 C-8 36 -8 36 -10 35 C-9.83846436 34.28142822 -9.67692871 33.56285645 -9.51049805 32.82250977 C-8.67641761 28.2109345 -8.81554546 23.61228227 -8.8125 18.9375 C-8.80025391 17.94427734 -8.78800781 16.95105469 -8.77539062 15.92773438 C-8.77345703 14.97060547 -8.77152344 14.01347656 -8.76953125 13.02734375 C-8.76542236 12.15843506 -8.76131348 11.28952637 -8.75708008 10.39428711 C-9.01672441 7.8351595 -9.71058038 6.20546012 -11 4 C-9.5437455 3.32880451 -8.08492133 2.66318193 -6.625 2 C-5.81289062 1.62875 -5.00078125 1.2575 -4.1640625 0.875 C-2 0 -2 0 0 0 Z " fill="#EDEDED" transform="translate(106,333)"/>
<path d="M0 0 C0.89749822 3.0682638 1.11711768 5.79269976 1.09765625 8.984375 C1.09443359 9.91894531 1.09121094 10.85351562 1.08789062 11.81640625 C1.07951172 12.78449219 1.07113281 13.75257813 1.0625 14.75 C1.05798828 15.73355469 1.05347656 16.71710938 1.04882812 17.73046875 C1.03706483 20.15370791 1.02062684 22.57682273 1 25 C0.401875 25.12375 -0.19625 25.2475 -0.8125 25.375 C-3.26231348 25.95475985 -3.26231348 25.95475985 -6 28 C-10.38022178 28 -13.15120949 27.28029554 -16.375 24.375 C-19.27605076 21.14728937 -20.082895 18.39343487 -20 14 C-18.07336837 11.59226643 -16.01376457 10.34667093 -13.2421875 9.0625 C-12.53449219 8.72476562 -11.82679688 8.38703125 -11.09765625 8.0390625 C-9.60947106 7.34335554 -8.11986975 6.65067018 -6.62890625 5.9609375 C-4.71686391 5.04511466 -2.85384895 4.02853364 -1 3 C-0.67 2.01 -0.34 1.02 0 0 Z M-5.5625 10 C-6.38878906 10.556875 -7.21507812 11.11375 -8.06640625 11.6875 C-8.70449219 12.120625 -9.34257812 12.55375 -10 13 C-9.67 14.98 -9.34 16.96 -9 19 C-4.46859347 19.93380961 -4.46859347 19.93380961 0 19 C0 15.04 0 11.08 0 7 C-2.0350433 7 -3.94995897 8.90983142 -5.5625 10 Z " fill="#DBDBDB" transform="translate(268,341)"/>
<path d="M0 0 C2.97 0.495 2.97 0.495 6 1 C6 11.89 6 22.78 6 34 C3.03 34.495 3.03 34.495 0 35 C-1.70492881 33.29507119 -1.1280442 31.15465739 -1.13894653 28.88098145 C-1.1369223 28.16744507 -1.13489807 27.45390869 -1.1328125 26.71875 C-1.13376923 25.99006714 -1.13472595 25.26138428 -1.13571167 24.51062012 C-1.13639335 22.9672029 -1.13453988 21.42378283 -1.13037109 19.88037109 C-1.12502262 17.510026 -1.13031642 15.13987041 -1.13671875 12.76953125 C-1.13605797 11.27343708 -1.1347768 9.77734303 -1.1328125 8.28125 C-1.13483673 7.56771362 -1.13686096 6.85417725 -1.13894653 6.11901855 C-1.11495191 1.11495191 -1.11495191 1.11495191 0 0 Z " fill="#2D99A5" transform="translate(275,263)"/>
<path d="M0 0 C2.58926331 2.58926331 2.37398043 4.02705279 2.625 7.625 C2.69976562 8.62789062 2.77453125 9.63078125 2.8515625 10.6640625 C2.92503906 11.82035156 2.92503906 11.82035156 3 13 C3.598125 12.484375 4.19625 11.96875 4.8125 11.4375 C5.534375 10.963125 6.25625 10.48875 7 10 C7.99 10.33 8.98 10.66 10 11 C9.01 12.485 9.01 12.485 8 14 C7.34 14 6.68 14 6 14 C6 14.66 6 15.32 6 16 C6.66 16 7.32 16 8 16 C8 16.66 8 17.32 8 18 C9.98 18 11.96 18 14 18 C14 18.33 14 18.66 14 19 C10.04 19.495 10.04 19.495 6 20 C6 21.32 6 22.64 6 24 C4.68 23.67 3.36 23.34 2 23 C1.67 24.65 1.34 26.3 1 28 C0.34 26.68 -0.32 25.36 -1 24 C-3.31 24.33 -5.62 24.66 -8 25 C-7.01 23.68 -6.02 22.36 -5 21 C-8.3 20.34 -11.6 19.68 -15 19 C-11.91111478 16.94074319 -11.29064073 16.7609626 -7.8125 16.875 C-6.554375 16.91625 -5.29625 16.9575 -4 17 C-4.66 16.21625 -5.32 15.4325 -6 14.625 C-8 12 -8 12 -8 10 C-5.50638429 11.20381448 -3.31856917 12.45428722 -1 14 C-1.020625 12.80375 -1.04125 11.6075 -1.0625 10.375 C-1.06882571 6.81995131 -0.69888875 3.49444376 0 0 Z " fill="#87AFB4" transform="translate(132,42)"/>
<path d="M0 0 C0.66 0 1.32 0 2 0 C3.21343851 3.76474505 3.08191094 7.31515219 3.02172852 11.24707031 C3.01212097 11.96941864 3.00251343 12.69176697 2.99261475 13.43600464 C2.959709 15.81681322 2.91934486 18.19743345 2.87890625 20.578125 C2.85459689 22.23149965 2.83075374 23.88488122 2.80735779 25.53826904 C2.74459805 29.88500866 2.67550851 34.23162548 2.60510254 38.57824707 C2.53434577 43.01564961 2.46957277 47.45313905 2.40429688 51.890625 C2.27538907 60.59384814 2.13924145 69.29693605 2 78 C-7.24 78.33 -16.48 78.66 -26 79 C-26 73.72 -26 68.44 -26 63 C-25.67 63 -25.34 63 -25 63 C-25 67.62 -25 72.24 -25 77 C-16.75 77 -8.5 77 0 77 C0 51.59 0 26.18 0 0 Z " fill="#9E9F9F" transform="translate(268,175)"/>
<path d="M0 0 C2.61918417 1.09053305 4.63616293 2.39057902 7 4 C5.47401883 9.42571082 1.73957956 12.97469976 -2 17 C-2.721875 17.825 -3.44375 18.65 -4.1875 19.5 C-6 21 -6 21 -10 21 C-10 19 -10 19 -8.125 17.0625 C-7.42375 16.381875 -6.7225 15.70125 -6 15 C-4.0549 12.08235 -3.54723683 10.37462715 -3 7 C-5.97 7 -8.94 7 -12 7 C-11.625 4.0625 -11.625 4.0625 -11 1 C-7.52842158 -0.73578921 -3.79535135 -0.47596426 0 0 Z " fill="#D3D3D3" transform="translate(330,401)"/>
<path d="M0 0 C1.7143618 1.95927063 3.38405168 3.95880212 5 6 C3.50902342 9.7952131 1.24299151 11.61042731 -2 14 C-3.98 12.02 -5.96 10.04 -8 8 C-6.48291727 4.46014029 -4.24676932 0 0 0 Z " fill="#D4D4D4" transform="translate(319,317)"/>
<path d="M0 0 C1.56047445 0.00015913 3.12095416 0.00585397 4.68139648 0.01586914 C5.91115456 0.01799156 5.91115456 0.01799156 7.16575623 0.02015686 C9.79470406 0.0257725 12.42356797 0.0383276 15.05249023 0.05102539 C16.8304838 0.05603838 18.60847869 0.06060163 20.38647461 0.06469727 C24.75434569 0.07574701 29.12215371 0.09302208 33.48999023 0.11352539 C33.48999023 2.75352539 33.48999023 5.39352539 33.48999023 8.11352539 C21.27999023 8.11352539 9.06999023 8.11352539 -3.51000977 8.11352539 C-3.51000977 7.78352539 -3.51000977 7.45352539 -3.51000977 7.11352539 C8.36999023 7.11352539 20.24999023 7.11352539 32.48999023 7.11352539 C32.48999023 5.13352539 32.48999023 3.15352539 32.48999023 1.11352539 C27.72043266 1.15770207 22.952196 1.22755703 18.18334961 1.32104492 C16.56171187 1.34923886 14.9399371 1.37046134 13.31811523 1.38452148 C10.98406918 1.40597411 8.65166763 1.45263114 6.31811523 1.50415039 C5.59505188 1.50537903 4.87198853 1.50660767 4.12701416 1.50787354 C0.56498854 1.61110384 -1.20148393 1.86091911 -3.99926758 4.15161133 C-4.4978125 4.79904297 -4.99635742 5.44647461 -5.51000977 6.11352539 C-4.43847664 0.1435551 -4.43847664 0.1435551 0 0 Z " fill="#8D8D8D" transform="translate(140.510009765625,214.886474609375)"/>
<path d="M0 0 C3 1 3 1 5 4 C5.99 4.66 6.98 5.32 8 6 C8.33 6.66 8.66 7.32 9 8 C2.13107822 11.25369979 2.13107822 11.25369979 -1.08984375 10.53125 C-3 9.6875 -3 9.6875 -6 8 C-4.55746343 4.63408134 -2.66735273 2.48952921 0 0 Z " fill="#CDCDCD" transform="translate(209,440)"/>
<path d="M0 0 C2.97 0.495 2.97 0.495 6 1 C6 11.89 6 22.78 6 34 C5.67 34 5.34 34 5 34 C5 23.44 5 12.88 5 2 C3.35 2 1.7 2 0 2 C0 8.93 0 15.86 0 23 C-0.99 22.01 -1.98 21.02 -3 20 C-2.68359375 18.2578125 -2.68359375 18.2578125 -2 16 C-1.97064039 12.36779736 -2.06579711 8.74812731 -2.16015625 5.1171875 C-2 2 -2 2 0 0 Z " fill="#24555A" transform="translate(189,263)"/>
<path d="M0 0 C0.33 0 0.66 0 1 0 C1 19.8 1 39.6 1 60 C0.67 60 0.34 60 0 60 C-0.33 47.46 -0.66 34.92 -1 22 C-1.33 22 -1.66 22 -2 22 C-2.05807043 18.89591193 -2.09361914 15.7919636 -2.125 12.6875 C-2.14175781 11.80642578 -2.15851563 10.92535156 -2.17578125 10.01757812 C-2.18222656 9.17001953 -2.18867188 8.32246094 -2.1953125 7.44921875 C-2.20578613 6.66893311 -2.21625977 5.88864746 -2.22705078 5.0847168 C-2 3 -2 3 0 0 Z " fill="#424242" transform="translate(242,178)"/>
<path d="M0 0 C3 3.46153846 3 3.46153846 3 6 C3.66 6 4.32 6 5 6 C5 6.99 5 7.98 5 9 C-3.42857143 10.42857143 -3.42857143 10.42857143 -8 8 C-6.48291727 4.46014029 -4.24676932 0 0 0 Z " fill="#D3D3D3" transform="translate(344,440)"/>
<path d="M0 0 C0.66 0.33 1.32 0.66 2 1 C2 3.31 2 5.62 2 8 C4.64 8 7.28 8 10 8 C10 8.33 10 8.66 10 9 C7.03 9 4.06 9 1 9 C0.67 7.35 0.34 5.7 0 4 C-0.47050781 4.5775 -0.94101562 5.155 -1.42578125 5.75 C-2.04839844 6.4925 -2.67101562 7.235 -3.3125 8 C-4.23482422 9.11375 -4.23482422 9.11375 -5.17578125 10.25 C-7 12 -7 12 -10 12 C-10 10 -10 10 -8.125 7.875 C-6 6 -6 6 -4 6 C-3.71125 5.38125 -3.4225 4.7625 -3.125 4.125 C-2 2 -2 2 0 0 Z " fill="#9D9D9D" transform="translate(294,326)"/>
<path d="M0 0 C1.26582219 3.86723631 1.1118765 7.73151262 1.0625 11.75 C1.05798828 12.44738281 1.05347656 13.14476562 1.04882812 13.86328125 C1.0371002 15.57555803 1.01916653 17.28779033 1 19 C0.67 19 0.34 19 0 19 C-0.33 15.37 -0.66 11.74 -1 8 C-2.32 8.33 -3.64 8.66 -5 9 C-5 8.34 -5 7.68 -5 7 C-5.66 6.67 -6.32 6.34 -7 6 C-6.030625 5.566875 -5.06125 5.13375 -4.0625 4.6875 C-0.72268235 3.2985139 -0.72268235 3.2985139 0 0 Z " fill="#9A9A9A" transform="translate(268,341)"/>
<path d="M0 0 C2.0625 0.4375 2.0625 0.4375 4 1 C3.01 1 2.02 1 1 1 C1 6.28 1 11.56 1 17 C1.99 17.33 2.98 17.66 4 18 C2.0625 18.5625 2.0625 18.5625 0 19 C-1.8855253 17.1144747 -1.13246689 14.42231169 -1.13671875 11.91796875 C-1.13285156 11.12003906 -1.12898437 10.32210938 -1.125 9.5 C-1.12886719 8.70207031 -1.13273438 7.90414063 -1.13671875 7.08203125 C-1.12660767 1.12660767 -1.12660767 1.12660767 0 0 Z " fill="#234D52" transform="translate(136,410)"/>
<path d="M0 0 C0.66 0.33 1.32 0.66 2 1 C2.625 3.5625 2.625 3.5625 3 6 C1.35 6.33 -0.3 6.66 -2 7 C-1.690625 8.175625 -1.690625 8.175625 -1.375 9.375 C-1.25125 10.24125 -1.1275 11.1075 -1 12 C-1.66 12.66 -2.32 13.32 -3 14 C-3.33 13.34 -3.66 12.68 -4 12 C-3.67 11.34 -3.34 10.68 -3 10 C-4.65 10 -6.3 10 -8 10 C-8.33 9.34 -8.66 8.68 -9 8 C-7.02 8 -5.04 8 -3 8 C-3 7.34 -3 6.68 -3 6 C-2.34 6 -1.68 6 -1 6 C-0.67 4.02 -0.34 2.04 0 0 Z " fill="#404E50" transform="translate(108,75)"/>
<path d="M0 0 C2.125 0.375 2.125 0.375 4 1 C4.625 2.875 4.625 2.875 5 5 C4.34 5.66 3.68 6.32 3 7 C0.875 6.625 0.875 6.625 -1 6 C-1.625 4.125 -1.625 4.125 -2 2 C-1.34 1.34 -0.68 0.68 0 0 Z " fill="#2A8089" transform="translate(133,393)"/>
<path d="M0 0 C0 0.66 0 1.32 0 2 C0.66 2.33 1.32 2.66 2 3 C1.01 3.66 0.02 4.32 -1 5 C-1.33 5.99 -1.66 6.98 -2 8 C-4.5625 9.6875 -4.5625 9.6875 -7 11 C-6.67 10.0925 -6.34 9.185 -6 8.25 C-4.80394277 4.92954193 -4.80394277 4.92954193 -5 1 C-3 0 -3 0 0 0 Z " fill="#AFD3D7" transform="translate(111,81)"/>
<path d="M0 0 C0.99 0 1.98 0 3 0 C3.33 1.32 3.66 2.64 4 4 C5.32 3.67 6.64 3.34 8 3 C7.67 3.66 7.34 4.32 7 5 C9.475 5.99 9.475 5.99 12 7 C12 7.33 12 7.66 12 8 C5.9453125 8.1953125 5.9453125 8.1953125 4 8 C2 6 2 6 1.875 3.375 C1.91625 2.59125 1.9575 1.8075 2 1 C1.34 0.67 0.68 0.34 0 0 Z " fill="#959595" transform="translate(376,333)"/>
<path d="M0 0 C2.52017426 2.52017426 2.29730377 3.51499849 2.3125 7 C2.32925781 7.886875 2.34601563 8.77375 2.36328125 9.6875 C2.24339844 10.450625 2.12351563 11.21375 2 12 C1.01 12.66 0.02 13.32 -1 14 C-1.08333357 9.1666528 -0.95261487 4.76307437 0 0 Z " fill="#628083" transform="translate(132,42)"/>
<path d="M0 0 C-1.37512141 2.96179996 -3.00369426 5.42143842 -5 8 C-5.66 8.99 -6.32 9.98 -7 11 C-6.51098901 4.64285714 -6.51098901 4.64285714 -4.0625 1.5625 C-2 0 -2 0 0 0 Z " fill="#276C73" transform="translate(213,264)"/>
<path d="M0 0 C0.66 0.33 1.32 0.66 2 1 C-0.31 3.31 -2.62 5.62 -5 8 C-5.33 7.34 -5.66 6.68 -6 6 C-4 4 -2 2 0 0 Z " fill="#AEAEAE" transform="translate(338,334)"/>
<path d="M0 0 C3 1 3 1 3 1 Z " fill="#1E1E1E" transform="translate(170,225)"/>
<path d="" fill="#343E3F" transform="translate(0,0)"/>
</svg>
